<svg
	xmlns:svg="http://www.w3.org/2000/svg"
	xmlns="http://www.w3.org/2000/svg"
	viewBox="0 0 512 512"
	height="512"
	width="512">

	<rect width="480" height="480" x="16" y="16" rx="128" ry="128" fill="hsl(200, 100%, 66%)" stroke="hsl(200, 100%, 60%)" stroke-width="16" />

	<g transform="translate(256 256) scale(0.75) translate(-256 -256)">
		<svg xmlns:rdf="http://www.w3.org/1999/02/22-rdf-syntax-ns#" xmlns="http://www.w3.org/2000/svg" viewBox="0 0 24 24">
			<g transform="translate(0 -1028.4)">
				<path d="m5 1032.4c-1.1046 0-2 0.9-2 2v14c0 1.1 0.8954 2 2 2h6 2 6c1.105 0 2-0.9 2-2v-14c0-1.1-0.895-2-2-2h-6-2-6z" fill="#bdc3c7"/>
				<path d="m5 3c-1.1046 0-2 0.8954-2 2v14c0 1.105 0.8954 2 2 2h6 2 6c1.105 0 2-0.895 2-2v-14c0-1.1046-0.895-2-2-2h-6-2-6z" transform="translate(0 1028.4)" fill="#ecf0f1"/>
				<path d="m5 3c-1.1046 0-2 0.8954-2 2v3 1h18v-1-3c0-1.1046-0.895-2-2-2h-6-2-6z" transform="translate(0 1028.4)" fill="#e74c3c"/>
				<path d="m7 5.5a1.5 1.5 0 1 1 -3 0 1.5 1.5 0 1 1 3 0z" transform="translate(.5 1028.4)" fill="#c0392b"/>
				<path d="m7 5.5a1.5 1.5 0 1 1 -3 0 1.5 1.5 0 1 1 3 0z" transform="translate(12.5 1028.4)" fill="#c0392b"/>
				<g fill="#bdc3c7">
					<path d="m5 1039.4v2h2v-2h-2zm3 0v2h2v-2h-2zm3 0v2h2v-2h-2zm3 0v2h2v-2h-2zm3 0v2h2v-2h-2z"/>
					<path d="m5 1042.4v2h2v-2h-2zm3 0v2h2v-2h-2zm3 0v2h2v-2h-2zm3 0v2h2v-2h-2zm3 0v2h2v-2h-2z"/>
					<path d="m5 1045.4v2h2v-2h-2zm3 0v2h2v-2h-2zm3 0v2h2v-2h-2zm3 0v2h2v-2h-2zm3 0v2h2v-2h-2z"/>
				</g>
				<path d="m6 1c-0.5523 0-1 0.4477-1 1v3c0 0.5523 0.4477 1 1 1s1-0.4477 1-1v-3c0-0.5523-0.4477-1-1-1zm12 0c-0.552 0-1 0.4477-1 1v3c0 0.5523 0.448 1 1 1s1-0.4477 1-1v-3c0-0.5523-0.448-1-1-1z" transform="translate(0 1028.4)" fill="#95a5a6"/>
				<path d="m6 1029.4c-0.5523 0-1 0.4-1 1v2h2v-2c0-0.6-0.4477-1-1-1zm12 0c-0.552 0-1 0.4-1 1v2h2v-2c0-0.6-0.448-1-1-1z" fill="#bdc3c7"/>
			 </g>
		</svg>
	</g>
</svg>