<svg
	xmlns:svg="http://www.w3.org/2000/svg"
	xmlns="http://www.w3.org/2000/svg"
	viewBox="0 0 512 512"
	height="512"
	width="512">

	<rect width="480" height="480" x="16" y="16" rx="128" ry="128" fill="hsl(135, 33%, 50%)" stroke="hsl(135, 33%, 45%)" stroke-width="16" />

	<g transform="translate(256 256) scale(0.75) translate(-256 -256)">
		<svg xmlns="http://www.w3.org/2000/svg" xmlns:xlink="http://www.w3.org/1999/xlink" x="0px" y="0px" viewBox="-3 -3 60 60">
			<rect x="5.5" style="fill:#C9C9BA;" width="45" height="56"/>
			<rect x="8.5" y="5" style="fill:#98A5A8;" width="39" height="12"/>
			<rect x="38.5" y="32" style="fill:#F29C1F;" width="9" height="20"/>
			<rect x="8.5" y="21" style="fill:#575C55;" width="8" height="9"/>
			<rect x="18.5" y="21" style="fill:#575C55;" width="8" height="9"/>
			<rect x="28.5" y="21" style="fill:#575C55;" width="8" height="9"/>
			<rect x="38.5" y="21" style="fill:#FFFEF9;" width="9" height="9"/>
			<rect x="8.5" y="32" style="fill:#575C55;" width="8" height="9"/>
			<rect x="18.5" y="32" style="fill:#575C55;" width="8" height="9"/>
			<rect x="28.5" y="32" style="fill:#575C55;" width="8" height="9"/>
			<rect x="8.5" y="43" style="fill:#575C55;" width="8" height="9"/>
			<rect x="18.5" y="43" style="fill:#575C55;" width="8" height="9"/>
			<rect x="28.5" y="43" style="fill:#575C55;" width="8" height="9"/>
		</svg>
	</g>
</svg>