<svg
	xmlns:svg="http://www.w3.org/2000/svg"
	xmlns="http://www.w3.org/2000/svg"
	viewBox="0 0 512 512"
	height="512"
	width="512">

	<rect width="480" height="480" x="16" y="16" rx="128" ry="128" fill="hsl(250, 33%, 50%)" stroke="hsl(250, 33%, 45%)" stroke-width="16" />

	<g transform="translate(256 256) scale(0.75) translate(-256 -256)">
		<svg xmlns="http://www.w3.org/2000/svg" xmlns:xlink="http://www.w3.org/1999/xlink" x="0px" y="0px" viewBox="0 0 512 512">
			<polygon style="fill:#C2B8B9;" points="512, 399.929 512, 490.951 0, 490.951 0, 399.929 256, 365.796 "/>
			<rect y="21.049" style="fill:#1B4145;" width="512" height="378.88"/>
			<circle style="fill:#F14742;" cx="255.42" cy="210.489" r="124.188"/>
			<polygon style="fill:#FFFFFF;" points="214.363, 139.225 337.796, 210.489 214.363, 281.752 "/>
			<path style="fill:#ECE7EA;" d="M 466.489, 453.973 H 45.511 c -4.713, 0 -8.533 -3.82 -8.533-8.533 c 0 -4.714, 3.821 -8.533, 8.533 -8.533 h 420.978 c 4.714, 0, 8.533, 3.82, 8.533, 8.533 C 475.022, 450.154, 471.203, 453.973, 466.489, 453.973 z"/>
		</svg>
	</g>
</svg>